<svg version="1.1" id="Layer_1" xmlns="http://www.w3.org/2000/svg" xmlns:xlink="http://www.w3.org/1999/xlink" x="0px" y="0px"
	 width="100%" viewBox="0 0 140 147" enable-background="new 0 0 140 147" xml:space="preserve">
<path fill="antiquewhite" opacity="1.000000" stroke="none" 
	d="
M125.007355,148.000000 
	C83.339554,148.000000 42.173080,148.000000 1.004956,148.000000 
	C1.003304,99.002434 1.003304,50.004868 1.001652,1.005476 
	C47.664013,1.003650 94.328026,1.003650 140.994019,1.001825 
	C140.996017,49.997116 140.996017,98.994232 140.998016,147.995667 
	C135.836227,148.000000 130.672455,148.000000 125.007355,148.000000 
M82.220673,128.683716 
	C85.648308,123.146027 87.318954,117.139679 86.892357,110.619675 
	C86.242989,100.694862 79.412186,93.008255 70.339249,92.267700 
	C65.082130,91.838600 60.352554,93.136993 57.510075,98.162270 
	C55.039417,102.530197 54.453564,107.156281 57.373634,111.394310 
	C60.362759,115.732582 64.861626,117.110672 70.113403,116.423622 
	C78.576416,115.316467 80.184074,117.136002 76.479729,124.744217 
	C74.281647,129.258774 70.837341,133.264542 67.475578,137.077850 
	C65.456833,139.367752 62.518505,140.846954 59.784416,142.843124 
	C60.538979,144.202866 61.218727,145.427780 61.972942,146.786896 
	C70.508583,142.739609 76.727013,136.647247 82.220673,128.683716 
z"/>
<path fill="#9A3935" opacity="1.000000" stroke="none" 
	d="
M82.043869,129.001801 
	C76.727013,136.647247 70.508583,142.739609 61.972942,146.786896 
	C61.218727,145.427780 60.538979,144.202866 59.784416,142.843124 
	C62.518505,140.846954 65.456833,139.367752 67.475578,137.077850 
	C70.837341,133.264542 74.281647,129.258774 76.479729,124.744217 
	C80.184074,117.136002 78.576416,115.316467 70.113403,116.423622 
	C64.861626,117.110672 60.362759,115.732582 57.373634,111.394310 
	C54.453564,107.156281 55.039417,102.530197 57.510075,98.162270 
	C60.352554,93.136993 65.082130,91.838600 70.339249,92.267700 
	C79.412186,93.008255 86.242989,100.694862 86.892357,110.619675 
	C87.318954,117.139679 85.648308,123.146027 82.043869,129.001801 
z"/>
</svg>