<svg version="1.1" id="Layer_1" xmlns="http://www.w3.org/2000/svg" xmlns:xlink="http://www.w3.org/1999/xlink" x="0px" y="0px"
	 width="100%" viewBox="0 0 140 147" enable-background="new 0 0 140 147" xml:space="preserve">
<path fill="#FFFFFF" opacity="1.000000" stroke="none" 
	d="
M133.125168,148.000000 
	C88.779236,148.000000 44.948181,148.000000 1.058563,148.000000 
	C1.058563,99.041649 1.058563,50.083206 1.058563,1.062383 
	C47.622578,1.062383 94.245262,1.062383 140.933975,1.062383 
	C140.933975,49.953365 140.933975,98.906845 140.933975,148.000000 
	C138.547440,148.000000 136.093735,148.000000 133.125168,148.000000 
M124.000000,117.492508 
	C124.000000,119.436058 124.000000,121.379608 124.000000,123.460480 
	C88.754234,123.460480 54.053726,123.460480 18.941189,123.460480 
	C18.941189,119.579063 18.941189,115.984474 18.941189,112.267944 
	C14.465394,112.267944 10.406012,112.267944 6.284502,112.267944 
	C6.284502,119.934212 6.284502,127.329132 6.284502,134.789932 
	C49.929314,134.789932 93.289062,134.789932 136.720444,134.789932 
	C136.720444,127.111626 136.720444,119.715729 136.720444,112.308838 
	C132.374115,112.308838 128.313980,112.308838 124.000008,112.308838 
	C124.000008,113.921440 124.000008,115.233360 124.000000,117.492508 
z"/>
<path fill="#983430" opacity="1.000000" stroke="none" 
	d="
M124.000000,117.018898 
	C124.000008,115.233360 124.000008,113.921440 124.000008,112.308838 
	C128.313980,112.308838 132.374115,112.308838 136.720444,112.308838 
	C136.720444,119.715729 136.720444,127.111626 136.720444,134.789932 
	C93.289062,134.789932 49.929314,134.789932 6.284502,134.789932 
	C6.284502,127.329132 6.284502,119.934212 6.284502,112.267944 
	C10.406012,112.267944 14.465394,112.267944 18.941189,112.267944 
	C18.941189,115.984474 18.941189,119.579063 18.941189,123.460480 
	C54.053726,123.460480 88.754234,123.460480 124.000000,123.460480 
	C124.000000,121.379608 124.000000,119.436058 124.000000,117.018898 
z"/>
</svg>