<svg version="1.1" id="Layer_1" xmlns="http://www.w3.org/2000/svg" xmlns:xlink="http://www.w3.org/1999/xlink" x="0px" y="0px"
	 width="100%" viewBox="0 0 140 147" enable-background="new 0 0 140 147" xml:space="preserve">
<path fill="#FFFEFE" opacity="1.000000" stroke="none" 
	d="
M72.000000,148.000000 
	C48.020481,148.000000 24.540966,148.000000 1.030724,148.000000 
	C1.030724,99.063210 1.030724,50.126389 1.030724,1.094786 
	C47.562630,1.094786 94.125511,1.094786 140.844208,1.094786 
	C140.844208,49.999611 140.844208,98.999756 140.844208,148.000000 
	C118.126770,148.000000 95.313385,148.000000 72.000000,148.000000 
M76.644005,110.213234 
	C81.093636,96.413780 81.093636,96.413780 95.606186,96.413780 
	C95.938950,96.413780 96.271706,96.413780 96.604469,96.413780 
	C110.059052,96.413780 110.059052,96.413780 114.566719,109.053925 
	C116.987366,115.841774 118.979004,116.712486 126.932617,114.108482 
	C126.619774,112.757278 126.434616,111.310875 125.952347,109.971436 
	C118.418282,89.046738 110.751869,68.168945 103.363045,47.193306 
	C101.917625,43.090008 99.016357,43.279320 95.838219,43.202721 
	C92.493858,43.122108 89.925232,43.562889 88.570450,47.539276 
	C83.914436,61.205055 78.852127,74.732414 73.944008,88.312286 
	C71.292488,95.648544 68.530624,102.948364 66.088249,110.353577 
	C65.650711,111.680153 66.010010,114.321671 66.895180,114.845367 
	C70.251289,116.830986 74.805367,114.708961 76.644005,110.213234 
M41.979115,71.165550 
	C46.425510,74.381409 46.163059,78.967209 45.895683,84.090729 
	C42.984383,84.090729 40.319706,83.819725 37.732513,84.152008 
	C33.476063,84.698669 29.133904,85.209068 25.071976,86.501762 
	C17.679819,88.854294 14.459658,94.215309 14.888990,102.206230 
	C15.265178,109.207970 19.371571,113.835167 26.837709,115.519333 
	C34.339478,117.211525 40.901978,115.003990 45.410397,111.280258 
	C47.939579,112.910782 49.630547,114.655724 51.578407,115.017494 
	C52.797726,115.243958 55.645657,113.392807 55.648926,112.466431 
	C55.694016,99.674782 55.820343,86.847565 54.847435,74.111519 
	C54.579872,70.608917 51.457218,66.411186 48.425034,64.220642 
	C41.847485,59.468826 25.634899,60.649723 19.520504,65.957184 
	C17.982613,67.292114 18.112206,70.548050 17.475487,72.921165 
	C19.368284,72.877655 21.495525,73.382896 23.111881,72.692337 
	C29.013992,70.170769 34.816486,67.883095 41.979115,71.165550 
z"/>
<path fill="#9B3935" opacity="1.000000" stroke="none" 
	d="
M76.473801,110.574875 
	C74.805367,114.708961 70.251289,116.830986 66.895180,114.845367 
	C66.010010,114.321671 65.650711,111.680153 66.088249,110.353577 
	C68.530624,102.948364 71.292488,95.648544 73.944008,88.312286 
	C78.852127,74.732414 83.914436,61.205055 88.570450,47.539276 
	C89.925232,43.562889 92.493858,43.122108 95.838219,43.202721 
	C99.016357,43.279320 101.917625,43.090008 103.363045,47.193306 
	C110.751869,68.168945 118.418282,89.046738 125.952347,109.971436 
	C126.434616,111.310875 126.619774,112.757278 126.932617,114.108482 
	C118.979004,116.712486 116.987366,115.841774 114.566719,109.053925 
	C110.059052,96.413780 110.059052,96.413780 96.604469,96.413780 
	C96.271706,96.413780 95.938950,96.413780 95.606186,96.413780 
	C81.093636,96.413780 81.093636,96.413780 76.473801,110.574875 
M104.102440,88.213760 
	C104.953499,87.490013 106.662498,86.478172 106.530327,86.084595 
	C103.093323,75.849190 99.465050,65.678017 95.522438,54.512123 
	C91.459480,66.337059 87.783066,77.036987 83.942451,88.214821 
	C90.890854,88.214821 97.034279,88.214821 104.102440,88.213760 
z"/>
<path fill="#9B3A36" opacity="1.000000" stroke="none" 
	d="
M41.612019,70.966095 
	C34.816486,67.883095 29.013992,70.170769 23.111881,72.692337 
	C21.495525,73.382896 19.368284,72.877655 17.475487,72.921165 
	C18.112206,70.548050 17.982613,67.292114 19.520504,65.957184 
	C25.634899,60.649723 41.847485,59.468826 48.425034,64.220642 
	C51.457218,66.411186 54.579872,70.608917 54.847435,74.111519 
	C55.820343,86.847565 55.694016,99.674782 55.648926,112.466431 
	C55.645657,113.392807 52.797726,115.243958 51.578407,115.017494 
	C49.630547,114.655724 47.939579,112.910782 45.410397,111.280258 
	C40.901978,115.003990 34.339478,117.211525 26.837709,115.519333 
	C19.371571,113.835167 15.265178,109.207970 14.888990,102.206230 
	C14.459658,94.215309 17.679819,88.854294 25.071976,86.501762 
	C29.133904,85.209068 33.476063,84.698669 37.732513,84.152008 
	C40.319706,83.819725 42.984383,84.090729 45.895683,84.090729 
	C46.163059,78.967209 46.425510,74.381409 41.612019,70.966095 
M28.290470,93.654747 
	C24.620489,96.033661 23.984070,99.599091 25.324211,103.276543 
	C26.754683,107.201874 30.209167,108.319054 34.222248,108.130547 
	C42.968594,107.719711 47.412830,101.205765 45.248367,90.422859 
	C39.846378,91.347580 34.396873,92.280441 28.290470,93.654747 
z"/>
<path fill="#FDFBFB" opacity="1.000000" stroke="none" 
	d="
M103.640076,88.214294 
	C97.034279,88.214821 90.890854,88.214821 83.942451,88.214821 
	C87.783066,77.036987 91.459480,66.337059 95.522438,54.512123 
	C99.465050,65.678017 103.093323,75.849190 106.530327,86.084595 
	C106.662498,86.478172 104.953499,87.490013 103.640076,88.214294 
z"/>
<path fill="#FCFAFA" opacity="1.000000" stroke="none" 
	d="
M28.618921,93.434021 
	C34.396873,92.280441 39.846378,91.347580 45.248367,90.422859 
	C47.412830,101.205765 42.968594,107.719711 34.222248,108.130547 
	C30.209167,108.319054 26.754683,107.201874 25.324211,103.276543 
	C23.984070,99.599091 24.620489,96.033661 28.618921,93.434021 
z"/>
</svg>