<svg version="1.1" id="Layer_1" xmlns="http://www.w3.org/2000/svg" xmlns:xlink="http://www.w3.org/1999/xlink" x="0px" y="0px"
	 width="100%" viewBox="0 0 268 147" enable-background="new 0 0 268 147" xml:space="preserve">
<path fill="#B89331" opacity="1.000000" stroke="none" 
	d="
M269.000000,23.000000 
	C269.000000,58.354229 269.000000,93.708458 268.698914,129.719788 
	C266.487488,137.814636 261.798981,143.297928 256.000000,148.000000 
	C175.645767,148.000000 95.291542,148.000000 14.329401,147.695068 
	C7.125887,143.316269 3.885011,136.788300 1.000000,130.000000 
	C1.000000,94.312439 1.000000,58.624878 1.317817,22.310909 
	C4.529242,11.455770 11.602371,5.139813 21.000000,1.000000 
	C96.687561,1.000000 172.375122,1.000000 248.798798,1.217864 
	C259.958618,5.071547 265.644562,12.983966 269.000000,23.000000 
M27.163155,8.284009 
	C14.622279,11.138794 9.007972,18.066313 9.004408,30.752386 
	C8.995750,61.568581 8.964316,92.384842 9.021289,123.200928 
	C9.043448,135.186615 17.442421,143.935043 29.322357,143.949265 
	C99.783043,144.033661 170.243942,144.033997 240.704620,143.947067 
	C252.355347,143.932693 260.936737,135.223251 260.967377,123.661980 
	C261.051300,92.013138 261.050781,60.363792 260.968567,28.714945 
	C260.938141,17.009195 252.108505,8.045405 240.425323,8.043590 
	C169.631760,8.032585 98.838196,8.131920 27.163155,8.284009 
z"/>
<path fill="#FEFDFB" opacity="1.000000" stroke="none" 
	d="
M20.530956,1.000000 
	C11.602371,5.139813 4.529242,11.455770 1.317817,21.842251 
	C1.000000,15.075719 1.000000,8.151438 1.000000,1.000000 
	C7.352178,1.000000 13.707046,1.000000 20.530956,1.000000 
z"/>
<path fill="#FEFDFB" opacity="1.000000" stroke="none" 
	d="
M269.000000,22.531218 
	C265.644562,12.983966 259.958618,5.071547 249.267456,1.217864 
	C255.596375,1.000000 262.192749,1.000000 269.000000,1.000000 
	C269.000000,8.019411 269.000000,15.040923 269.000000,22.531218 
z"/>
<path fill="#FDFCFA" opacity="1.000000" stroke="none" 
	d="
M1.000000,130.469711 
	C3.885011,136.788300 7.125887,143.316269 13.860744,147.695068 
	C9.729098,148.000000 5.458196,148.000000 1.000000,148.000000 
	C1.000000,142.314087 1.000000,136.626755 1.000000,130.469711 
z"/>
<path fill="#FDFDFA" opacity="1.000000" stroke="none" 
	d="
M256.476654,148.000000 
	C261.798981,143.297928 266.487488,137.814636 268.698914,130.188446 
	C269.000000,135.910828 269.000000,141.821640 269.000000,148.000000 
	C264.988312,148.000000 260.970825,148.000000 256.476654,148.000000 
z"/>
<path fill="antiquewhite" opacity="1.000000" stroke="none" 
	d="
M27.603893,8.239197 
	C98.838196,8.131920 169.631760,8.032585 240.425323,8.043590 
	C252.108505,8.045405 260.938141,17.009195 260.968567,28.714945 
	C261.050781,60.363792 261.051300,92.013138 260.967377,123.661980 
	C260.936737,135.223251 252.355347,143.932693 240.704620,143.947067 
	C170.243942,144.033997 99.783043,144.033661 29.322357,143.949265 
	C17.442421,143.935043 9.043448,135.186615 9.021289,123.200928 
	C8.964316,92.384842 8.995750,61.568581 9.004408,30.752386 
	C9.007972,18.066313 14.622279,11.138794 27.603893,8.239197 
M157.920517,109.493988 
	C152.621719,101.051872 147.436111,92.535301 141.959351,84.210258 
	C140.175217,81.498260 139.932526,79.559532 141.856674,76.715103 
	C146.880142,69.289055 151.507782,61.594017 156.239960,53.973129 
	C157.251022,52.344875 158.036453,50.576508 158.926437,48.871521 
	C151.953445,45.345818 147.542191,46.504364 143.843475,52.429020 
	C139.863098,58.804840 135.863403,65.168594 131.609268,71.957100 
	C127.280029,64.904877 123.372597,58.538567 119.463913,52.173016 
	C115.966980,46.478031 109.935432,45.208328 103.576027,49.162724 
	C104.353546,50.703300 105.040565,52.351620 105.967087,53.852055 
	C110.679787,61.483959 115.268906,69.203270 120.295334,76.625122 
	C122.421448,79.764458 122.204041,81.949203 120.161812,84.965179 
	C114.854218,92.803474 109.879593,100.869034 104.857056,108.897057 
	C103.871620,110.472183 103.268028,112.286209 102.457069,114.058372 
	C111.278801,116.918182 114.511314,115.805580 118.669029,108.915787 
	C122.572411,102.447433 126.475182,95.978706 130.722626,88.939354 
	C135.018723,96.009087 139.456802,102.272621 142.770004,109.083374 
	C145.580353,114.860443 149.731567,115.867920 155.319946,115.353668 
	C159.197113,114.996880 160.666580,113.778862 157.920517,109.493988 
z"/>
<path fill="#050505" opacity="1.000000" stroke="none" 
	d="
M158.084991,109.811050 
	C160.666580,113.778862 159.197113,114.996880 155.319946,115.353668 
	C149.731567,115.867920 145.580353,114.860443 142.770004,109.083374 
	C139.456802,102.272621 135.018723,96.009087 130.722626,88.939354 
	C126.475182,95.978706 122.572411,102.447433 118.669029,108.915787 
	C114.511314,115.805580 111.278801,116.918182 102.457069,114.058372 
	C103.268028,112.286209 103.871620,110.472183 104.857056,108.897057 
	C109.879593,100.869034 114.854218,92.803474 120.161812,84.965179 
	C122.204041,81.949203 122.421448,79.764458 120.295334,76.625122 
	C115.268906,69.203270 110.679787,61.483959 105.967087,53.852055 
	C105.040565,52.351620 104.353546,50.703300 103.576027,49.162724 
	C109.935432,45.208328 115.966980,46.478031 119.463913,52.173016 
	C123.372597,58.538567 127.280029,64.904877 131.609268,71.957100 
	C135.863403,65.168594 139.863098,58.804840 143.843475,52.429020 
	C147.542191,46.504364 151.953445,45.345818 158.926437,48.871521 
	C158.036453,50.576508 157.251022,52.344875 156.239960,53.973129 
	C151.507782,61.594017 146.880142,69.289055 141.856674,76.715103 
	C139.932526,79.559532 140.175217,81.498260 141.959351,84.210258 
	C147.436111,92.535301 152.621719,101.051872 158.084991,109.811050 
z"/>
</svg>