<svg version="1.1" id="Layer_1" xmlns="http://www.w3.org/2000/svg" xmlns:xlink="http://www.w3.org/1999/xlink" x="0px" y="0px"
	 width="100%" viewBox="0 0 180 147" enable-background="new 0 0 180 147" xml:space="preserve">
<path fill="antiquewhite" opacity="1.000000" stroke="none" 
	d="
M129.000000,148.000000 
	C86.032516,148.000000 43.565025,148.000000 1.048770,148.000000 
	C1.048770,99.070038 1.048770,50.140022 1.048770,1.105000 
	C60.883934,1.105000 120.768120,1.105000 180.826141,1.105000 
	C180.826141,49.999485 180.826141,98.999702 180.826141,148.000000 
	C163.807022,148.000000 146.653519,148.000000 129.000000,148.000000 
M127.196304,104.363396 
	C129.544464,104.930428 131.902283,105.889000 134.235046,105.831490 
	C134.956787,105.813698 135.961258,103.091423 136.230255,101.504654 
	C137.082443,96.477722 137.648209,91.402222 138.309174,86.461731 
	C143.259659,86.461731 147.787354,86.461731 152.532349,86.461731 
	C151.835526,93.091400 151.182190,99.307442 150.491623,105.877800 
	C153.677292,105.877800 156.233521,105.877800 159.019363,105.877800 
	C159.906006,99.169930 160.750732,92.779175 161.526718,86.908524 
	C164.635651,84.526199 170.524094,89.042801 170.681030,82.231369 
	C170.811829,76.554184 165.746521,79.480507 162.751495,77.757500 
	C163.356369,72.438927 163.986511,66.898163 164.556854,61.883167 
	C167.635498,59.448933 173.553818,64.026108 173.657379,57.116039 
	C173.742310,51.448856 168.769196,54.280231 165.822586,52.682865 
	C166.313843,48.257088 166.753494,43.667076 167.360580,39.099323 
	C167.652542,36.902607 168.485199,34.502445 165.085022,34.307087 
	C162.190094,34.140762 158.964813,33.463554 158.637924,38.196808 
	C158.297348,43.128216 157.395157,48.020840 156.734161,52.962978 
	C151.867233,52.962978 147.324753,52.962978 142.507874,52.962978 
	C143.060638,48.259842 143.622818,43.979218 144.044540,39.684799 
	C144.267990,37.409264 145.724564,34.533958 141.423416,34.194653 
	C137.633484,33.895672 135.472748,34.966202 135.185638,39.156258 
	C134.870071,43.761620 134.101730,48.335960 133.599945,52.367149 
	C130.443375,54.928471 124.530846,50.476559 124.202232,57.099140 
	C123.880966,63.573818 129.836426,59.611183 132.398834,61.757454 
	C132.091888,64.479599 131.659927,67.278122 131.484650,70.092621 
	C131.176865,75.035164 131.122757,79.949883 123.752762,78.786964 
	C123.124847,78.687881 121.450363,81.326202 121.399315,82.734093 
	C121.360466,83.805435 122.929298,85.430122 124.142097,85.920952 
	C125.521049,86.479019 127.299515,86.049904 129.359985,86.049904 
	C128.592316,92.310150 127.906616,97.901939 127.196304,104.363396 
M40.956047,34.273201 
	C32.644798,34.129810 32.642868,34.129112 29.753174,42.101730 
	C22.899178,61.011772 16.026377,79.915054 9.223780,98.843575 
	C8.471174,100.937721 8.124225,103.177643 7.587939,105.354836 
	C15.422269,107.170502 17.004232,106.615295 18.739029,101.992409 
	C20.528683,97.223335 21.115768,90.621895 24.578445,88.245384 
	C28.128487,85.808891 34.523453,87.444702 39.673706,87.427010 
	C52.461674,87.383072 52.461781,87.412560 56.670582,99.321426 
	C59.423500,107.110855 60.203796,107.511574 69.220909,105.344978 
	C68.827835,103.646057 68.599312,101.881027 68.013367,100.243919 
	C60.675415,79.741669 53.340355,59.237804 45.811264,38.805580 
	C45.170685,37.067196 43.147526,35.838276 40.956047,34.273201 
M110.106995,73.558975 
	C112.338806,70.598206 111.849457,67.746063 109.951714,64.801567 
	C107.159973,60.469982 104.510185,56.047012 101.792160,51.667793 
	C99.863235,48.559959 97.985939,45.417397 95.966743,42.369061 
	C94.074341,39.512165 87.430740,37.815636 85.458786,40.242081 
	C84.505310,41.415321 85.594231,44.898884 86.614075,46.900406 
	C89.402565,52.373062 92.279976,57.872635 95.815010,62.871601 
	C99.099831,67.516747 98.627029,71.220772 95.698891,75.787720 
	C91.338326,82.588799 87.650291,89.821068 83.704498,96.819458 
	C89.250198,100.480072 93.783638,99.697762 96.794228,94.926422 
	C101.141670,88.036392 105.440002,81.115364 110.106995,73.558975 
z"/>
<path fill="#9B3A36" opacity="1.000000" stroke="none" 
	d="
M127.208618,103.928558 
	C127.906616,97.901939 128.592316,92.310150 129.359985,86.049904 
	C127.299515,86.049904 125.521049,86.479019 124.142097,85.920952 
	C122.929298,85.430122 121.360466,83.805435 121.399315,82.734093 
	C121.450363,81.326202 123.124847,78.687881 123.752762,78.786964 
	C131.122757,79.949883 131.176865,75.035164 131.484650,70.092621 
	C131.659927,67.278122 132.091888,64.479599 132.398834,61.757454 
	C129.836426,59.611183 123.880966,63.573818 124.202232,57.099140 
	C124.530846,50.476559 130.443375,54.928471 133.599945,52.367149 
	C134.101730,48.335960 134.870071,43.761620 135.185638,39.156258 
	C135.472748,34.966202 137.633484,33.895672 141.423416,34.194653 
	C145.724564,34.533958 144.267990,37.409264 144.044540,39.684799 
	C143.622818,43.979218 143.060638,48.259842 142.507874,52.962978 
	C147.324753,52.962978 151.867233,52.962978 156.734161,52.962978 
	C157.395157,48.020840 158.297348,43.128216 158.637924,38.196808 
	C158.964813,33.463554 162.190094,34.140762 165.085022,34.307087 
	C168.485199,34.502445 167.652542,36.902607 167.360580,39.099323 
	C166.753494,43.667076 166.313843,48.257088 165.822586,52.682865 
	C168.769196,54.280231 173.742310,51.448856 173.657379,57.116039 
	C173.553818,64.026108 167.635498,59.448933 164.556854,61.883167 
	C163.986511,66.898163 163.356369,72.438927 162.751495,77.757500 
	C165.746521,79.480507 170.811829,76.554184 170.681030,82.231369 
	C170.524094,89.042801 164.635651,84.526199 161.526718,86.908524 
	C160.750732,92.779175 159.906006,99.169930 159.019363,105.877800 
	C156.233521,105.877800 153.677292,105.877800 150.491623,105.877800 
	C151.182190,99.307442 151.835526,93.091400 152.532349,86.461731 
	C147.787354,86.461731 143.259659,86.461731 138.309174,86.461731 
	C137.648209,91.402222 137.082443,96.477722 136.230255,101.504654 
	C135.961258,103.091423 134.956787,105.813698 134.235046,105.831490 
	C131.902283,105.889000 129.544464,104.930428 127.208618,103.928558 
M152.757278,78.441841 
	C153.920944,72.802849 155.084625,67.163857 156.282028,61.361382 
	C150.733231,61.361382 146.030258,61.361382 141.277679,61.361382 
	C140.615158,67.097435 139.993683,72.478127 139.287781,78.589760 
	C143.749374,78.589760 147.818832,78.589760 152.757278,78.441841 
z"/>
<path fill="#9B3935" opacity="1.000000" stroke="none" 
	d="
M41.361351,34.322945 
	C43.147526,35.838276 45.170685,37.067196 45.811264,38.805580 
	C53.340355,59.237804 60.675415,79.741669 68.013367,100.243919 
	C68.599312,101.881027 68.827835,103.646057 69.220909,105.344978 
	C60.203796,107.511574 59.423500,107.110855 56.670582,99.321426 
	C52.461781,87.412560 52.461674,87.383072 39.673706,87.427010 
	C34.523453,87.444702 28.128487,85.808891 24.578445,88.245384 
	C21.115768,90.621895 20.528683,97.223335 18.739029,101.992409 
	C17.004232,106.615295 15.422269,107.170502 7.587939,105.354836 
	C8.124225,103.177643 8.471174,100.937721 9.223780,98.843575 
	C16.026377,79.915054 22.899178,61.011772 29.753174,42.101730 
	C32.642868,34.129112 32.644798,34.129810 41.361351,34.322945 
M42.911736,59.614792 
	C41.363556,55.366547 39.815380,51.118301 37.822899,45.650871 
	C33.734894,57.559090 30.120520,68.087646 26.385832,78.966675 
	C34.449638,78.966675 41.688320,78.966675 49.595478,78.966675 
	C47.333675,72.488266 45.219078,66.431488 42.911736,59.614792 
z"/>
<path fill="#9B3A36" opacity="1.000000" stroke="none" 
	d="
M109.933144,73.883270 
	C105.440002,81.115364 101.141670,88.036392 96.794228,94.926422 
	C93.783638,99.697762 89.250198,100.480072 83.704498,96.819458 
	C87.650291,89.821068 91.338326,82.588799 95.698891,75.787720 
	C98.627029,71.220772 99.099831,67.516747 95.815010,62.871601 
	C92.279976,57.872635 89.402565,52.373062 86.614075,46.900406 
	C85.594231,44.898884 84.505310,41.415321 85.458786,40.242081 
	C87.430740,37.815636 94.074341,39.512165 95.966743,42.369061 
	C97.985939,45.417397 99.863235,48.559959 101.792160,51.667793 
	C104.510185,56.047012 107.159973,60.469982 109.951714,64.801567 
	C111.849457,67.746063 112.338806,70.598206 109.933144,73.883270 
z"/>
<path fill="#FBF7F7" opacity="1.000000" stroke="none" 
	d="
M152.322784,78.515800 
	C147.818832,78.589760 143.749374,78.589760 139.287781,78.589760 
	C139.993683,72.478127 140.615158,67.097435 141.277679,61.361382 
	C146.030258,61.361382 150.733231,61.361382 156.282028,61.361382 
	C155.084625,67.163857 153.920944,72.802849 152.322784,78.515800 
z"/>
<path fill="#FDFBFB" opacity="1.000000" stroke="none" 
	d="
M43.008106,59.994747 
	C45.219078,66.431488 47.333675,72.488266 49.595478,78.966675 
	C41.688320,78.966675 34.449638,78.966675 26.385832,78.966675 
	C30.120520,68.087646 33.734894,57.559090 37.822899,45.650871 
	C39.815380,51.118301 41.363556,55.366547 43.008106,59.994747 
z"/>
</svg>