<svg version="1.1" id="Layer_1" xmlns="http://www.w3.org/2000/svg" xmlns:xlink="http://www.w3.org/1999/xlink" x="0px" y="0px"
	 width="100%" viewBox="0 0 180 147" enable-background="new 0 0 180 147" xml:space="preserve">
<path fill="antiquewhite" opacity="1.000000" stroke="none" 
	d="
M129.000000,148.000000 
	C86.032516,148.000000 43.565025,148.000000 1.048770,148.000000 
	C1.048770,99.070038 1.048770,50.140022 1.048770,1.105000 
	C60.883934,1.105000 120.768120,1.105000 180.826141,1.105000 
	C180.826141,49.999485 180.826141,98.999702 180.826141,148.000000 
	C163.807022,148.000000 146.653519,148.000000 129.000000,148.000000 
M23.743307,101.219833 
	C24.369389,95.956238 24.995468,90.692635 25.632587,85.336243 
	C30.633135,85.336243 35.214493,85.336243 39.986103,85.336243 
	C39.269352,91.971939 38.583328,98.323158 37.904251,104.610046 
	C46.285595,105.947342 46.260544,105.944092 47.176777,98.877289 
	C47.767620,94.320122 48.445152,89.774200 48.984024,85.934418 
	C52.232384,83.608322 57.695312,87.982788 58.009003,81.407822 
	C58.305672,75.189575 52.775803,78.745796 50.048378,76.716866 
	C50.717186,71.366753 51.408131,65.839584 51.986851,61.210114 
	C54.913326,58.178001 60.508060,63.126213 61.002934,56.527184 
	C61.495777,49.955223 55.504025,53.718655 53.165451,51.609375 
	C53.838058,45.813648 54.505760,40.060165 55.160965,34.414371 
	C48.306690,31.949190 46.625378,32.914227 45.859833,39.171349 
	C45.324848,43.544014 44.629078,47.897011 44.047581,51.961979 
	C38.892036,51.961979 34.487206,51.961979 29.844967,51.961979 
	C30.594870,45.808125 31.294613,40.065872 31.981714,34.427380 
	C25.204601,31.947737 23.616516,32.788757 22.662714,39.097633 
	C22.000708,43.476440 21.407846,47.865700 20.883911,51.548626 
	C17.538895,53.755234 12.129981,49.499138 11.728957,55.969913 
	C11.315026,62.648926 17.126629,58.717464 19.932585,60.662189 
	C19.238634,66.030327 18.522171,71.572601 17.882475,76.521042 
	C14.983736,79.238937 9.485321,74.537376 8.804229,80.841980 
	C8.091080,87.443329 14.097946,83.787582 16.554987,85.803429 
	C15.919170,92.027016 15.283331,98.250832 14.528188,105.642433 
	C18.114990,103.987228 22.303822,107.987793 23.743307,101.219833 
M173.840714,99.686028 
	C166.319580,78.932365 158.695053,58.215088 151.367035,37.393463 
	C149.950760,33.369347 147.249313,33.201019 143.982468,33.203529 
	C140.731964,33.206028 137.894669,33.255871 136.570236,37.345013 
	C133.810242,45.866512 130.553467,54.227074 127.502808,62.654480 
	C123.039726,74.983643 118.507240,87.288727 114.207191,99.674500 
	C113.675385,101.206306 113.714561,104.082870 114.642685,104.763641 
	C117.627724,106.953163 122.896255,104.705551 124.166550,101.147369 
	C125.449905,97.552597 126.863586,93.988655 127.867249,90.314789 
	C128.640961,87.482666 129.896469,86.230865 133.041611,86.336304 
	C140.187973,86.575867 147.356918,86.220718 154.495209,86.559761 
	C156.085693,86.635307 158.302155,88.241203 158.994400,89.720779 
	C160.955322,93.912094 162.040955,98.506729 163.913300,102.747383 
	C165.866241,107.170593 169.962036,104.730980 173.155884,104.824020 
	C173.410446,104.831436 173.748428,101.975288 173.840714,99.686028 
M102.608498,64.984436 
	C98.054970,57.634922 93.263443,50.418713 89.042587,42.882866 
	C86.734230,38.761574 83.602776,38.039192 79.483582,38.491489 
	C75.865501,38.888763 75.301033,40.482048 77.054642,43.476074 
	C80.414803,49.213058 83.254333,55.311577 87.110718,60.685398 
	C90.959084,66.048027 90.816765,70.372101 87.137260,75.778206 
	C82.792404,82.161888 79.423676,89.209930 75.648827,95.939545 
	C81.519753,99.458282 85.812523,98.635132 88.838753,93.821838 
	C93.175041,86.924858 97.668228,80.114639 101.677231,73.031250 
	C102.834946,70.985718 102.560722,68.129745 102.608498,64.984436 
z"/>
<path fill="#9B3936" opacity="1.000000" stroke="none" 
	d="
M23.672516,101.653534 
	C22.303822,107.987793 18.114990,103.987228 14.528188,105.642433 
	C15.283331,98.250832 15.919170,92.027016 16.554987,85.803429 
	C14.097946,83.787582 8.091080,87.443329 8.804229,80.841980 
	C9.485321,74.537376 14.983736,79.238937 17.882475,76.521042 
	C18.522171,71.572601 19.238634,66.030327 19.932585,60.662189 
	C17.126629,58.717464 11.315026,62.648926 11.728957,55.969913 
	C12.129981,49.499138 17.538895,53.755234 20.883911,51.548626 
	C21.407846,47.865700 22.000708,43.476440 22.662714,39.097633 
	C23.616516,32.788757 25.204601,31.947737 31.981714,34.427380 
	C31.294613,40.065872 30.594870,45.808125 29.844967,51.961979 
	C34.487206,51.961979 38.892036,51.961979 44.047581,51.961979 
	C44.629078,47.897011 45.324848,43.544014 45.859833,39.171349 
	C46.625378,32.914227 48.306690,31.949190 55.160965,34.414371 
	C54.505760,40.060165 53.838058,45.813648 53.165451,51.609375 
	C55.504025,53.718655 61.495777,49.955223 61.002934,56.527184 
	C60.508060,63.126213 54.913326,58.178001 51.986851,61.210114 
	C51.408131,65.839584 50.717186,71.366753 50.048378,76.716866 
	C52.775803,78.745796 58.305672,75.189575 58.009003,81.407822 
	C57.695312,87.982788 52.232384,83.608322 48.984024,85.934418 
	C48.445152,89.774200 47.767620,94.320122 47.176777,98.877289 
	C46.260544,105.944092 46.285595,105.947342 37.904251,104.610046 
	C38.583328,98.323158 39.269352,91.971939 39.986103,85.336243 
	C35.214493,85.336243 30.633135,85.336243 25.632587,85.336243 
	C24.995468,90.692635 24.369389,95.956238 23.672516,101.653534 
M37.455647,59.994217 
	C34.666210,59.994217 31.876776,59.994217 28.697992,59.994217 
	C28.043613,65.969589 27.427994,71.591026 26.800568,77.320297 
	C32.008717,77.320297 36.395199,77.320297 41.105873,77.320297 
	C41.829979,71.544632 42.521126,66.031853 43.250050,60.217762 
	C41.321003,60.128677 39.865498,60.061459 37.455647,59.994217 
z"/>
<path fill="#9B3935" opacity="1.000000" stroke="none" 
	d="
M173.944183,100.067963 
	C173.748428,101.975288 173.410446,104.831436 173.155884,104.824020 
	C169.962036,104.730980 165.866241,107.170593 163.913300,102.747383 
	C162.040955,98.506729 160.955322,93.912094 158.994400,89.720779 
	C158.302155,88.241203 156.085693,86.635307 154.495209,86.559761 
	C147.356918,86.220718 140.187973,86.575867 133.041611,86.336304 
	C129.896469,86.230865 128.640961,87.482666 127.867249,90.314789 
	C126.863586,93.988655 125.449905,97.552597 124.166550,101.147369 
	C122.896255,104.705551 117.627724,106.953163 114.642685,104.763641 
	C113.714561,104.082870 113.675385,101.206306 114.207191,99.674500 
	C118.507240,87.288727 123.039726,74.983643 127.502808,62.654480 
	C130.553467,54.227074 133.810242,45.866512 136.570236,37.345013 
	C137.894669,33.255871 140.731964,33.206028 143.982468,33.203529 
	C147.249313,33.201019 149.950760,33.369347 151.367035,37.393463 
	C158.695053,58.215088 166.319580,78.932365 173.944183,100.067963 
M154.632294,76.161232 
	C151.013657,65.896057 147.395035,55.630882 143.478546,44.520805 
	C139.468536,56.119102 135.753204,66.865097 131.830246,78.211563 
	C139.116516,78.211563 145.870239,78.249817 152.622192,78.157646 
	C153.370071,78.147438 154.107803,77.392776 154.632294,76.161232 
z"/>
<path fill="#9B3A36" opacity="1.000000" stroke="none" 
	d="
M102.775734,65.314880 
	C102.560722,68.129745 102.834946,70.985718 101.677231,73.031250 
	C97.668228,80.114639 93.175041,86.924858 88.838753,93.821838 
	C85.812523,98.635132 81.519753,99.458282 75.648827,95.939545 
	C79.423676,89.209930 82.792404,82.161888 87.137260,75.778206 
	C90.816765,70.372101 90.959084,66.048027 87.110718,60.685398 
	C83.254333,55.311577 80.414803,49.213058 77.054642,43.476074 
	C75.301033,40.482048 75.865501,38.888763 79.483582,38.491489 
	C83.602776,38.039192 86.734230,38.761574 89.042587,42.882866 
	C93.263443,50.418713 98.054970,57.634922 102.775734,65.314880 
z"/>
<path fill="#FBF7F7" opacity="1.000000" stroke="none" 
	d="
M37.932816,59.994232 
	C39.865498,60.061459 41.321003,60.128677 43.250050,60.217762 
	C42.521126,66.031853 41.829979,71.544632 41.105873,77.320297 
	C36.395199,77.320297 32.008717,77.320297 26.800568,77.320297 
	C27.427994,71.591026 28.043613,65.969589 28.697992,59.994217 
	C31.876776,59.994217 34.666210,59.994217 37.932816,59.994232 
z"/>
<path fill="#FDFBFA" opacity="1.000000" stroke="none" 
	d="
M154.741272,76.572311 
	C154.107803,77.392776 153.370071,78.147438 152.622192,78.157646 
	C145.870239,78.249817 139.116516,78.211563 131.830246,78.211563 
	C135.753204,66.865097 139.468536,56.119102 143.478546,44.520805 
	C147.395035,55.630882 151.013657,65.896057 154.741272,76.572311 
z"/>
</svg>