<svg version="1.1" id="Layer_1" xmlns="http://www.w3.org/2000/svg" xmlns:xlink="http://www.w3.org/1999/xlink" x="0px" y="0px"
	 width="100%" viewBox="0 0 139 124" enable-background="new 0 0 139 124" xml:space="preserve">
<path fill="brown" opacity="1.000000" stroke="none" 
	d="
M64.000000,1.000000 
	C79.020897,1.000000 94.041786,1.000000 109.703163,1.403062 
	C112.835510,1.869405 115.327095,1.971281 117.819290,1.989513 
	C130.997879,2.085923 138.964676,9.969213 138.991135,23.099741 
	C139.032074,43.411373 139.031158,63.723209 138.991501,84.034843 
	C138.966248,96.974899 131.072311,104.919456 118.237083,104.994316 
	C110.923943,105.036972 103.610344,105.002029 96.368744,105.002029 
	C92.455597,119.618958 86.741890,124.001808 71.866310,124.002106 
	C55.716831,124.002426 39.567310,124.024498 23.417889,123.994934 
	C10.486432,123.971268 2.063231,115.736420 2.017930,102.917007 
	C1.944977,82.272575 1.955142,61.627567 2.014088,40.983040 
	C2.050265,28.312687 10.296389,20.123995 22.974613,20.040443 
	C30.264549,19.992399 37.555061,20.031731 44.841541,20.031731 
	C46.526333,11.388131 50.733559,5.268944 59.131660,2.663748 
	C60.768925,2.155849 62.377949,1.556935 64.000000,1.000000 
M46.500000,115.995361 
	C55.984833,115.995277 65.469864,116.032959 74.954437,115.983635 
	C83.095360,115.941299 87.945831,111.150177 87.972366,102.924026 
	C88.039474,82.124054 88.047218,61.323517 87.965141,40.523655 
	C87.934883,32.856049 83.101868,28.053566 75.492950,28.028664 
	C57.854622,27.970930 40.215672,27.978445 22.577478,28.063282 
	C14.905452,28.100183 10.065516,32.867985 10.035563,40.505478 
	C9.953334,61.471729 9.942619,82.438835 10.042768,103.404938 
	C10.079814,111.160400 15.158146,115.933037 23.035870,115.984543 
	C30.523617,116.033508 38.011932,115.995262 46.500000,115.995361 
M96.003906,92.378624 
	C96.003906,93.819443 96.003906,95.260262 96.003906,96.960182 
	C104.450684,96.960182 112.416283,97.178940 120.363457,96.890457 
	C126.638519,96.662682 130.929428,91.856018 130.958069,85.265640 
	C131.049973,64.124146 131.058182,42.981678 130.956116,21.840281 
	C130.922577,14.892850 126.253517,10.111746 119.416290,10.051946 
	C101.105583,9.891794 82.792793,9.853709 64.481567,9.934658 
	C58.319782,9.961897 54.642807,13.551240 53.569706,19.997927 
	C60.583683,19.997927 67.570763,19.981241 74.557739,20.001501 
	C87.875076,20.040119 95.963074,28.104784 95.994400,41.457096 
	C96.033447,58.104176 96.003853,74.751419 96.003906,92.378624 
z"/>
<path fill="transparent" opacity="1.000000" stroke="none" 
	d="
M63.531342,1.000000 
	C62.377949,1.556935 60.768925,2.155849 59.131660,2.663748 
	C50.733559,5.268944 46.526333,11.388131 44.841541,20.031731 
	C37.555061,20.031731 30.264549,19.992399 22.974613,20.040443 
	C10.296389,20.123995 2.050265,28.312687 2.014088,40.983040 
	C1.955142,61.627567 1.944977,82.272575 2.017930,102.917007 
	C2.063231,115.736420 10.486432,123.971268 23.417889,123.994934 
	C39.567310,124.024498 55.716831,124.002426 71.866310,124.002106 
	C86.741890,124.001808 92.455597,119.618958 96.368744,105.002029 
	C103.610344,105.002029 110.923943,105.036972 118.237083,104.994316 
	C131.072311,104.919456 138.966248,96.974899 138.991501,84.034843 
	C139.031158,63.723209 139.032074,43.411373 138.991135,23.099741 
	C138.964676,9.969213 130.997879,2.085923 117.819290,1.989513 
	C115.327095,1.971281 112.835510,1.869405 110.171822,1.403062 
	C119.990883,1.000000 129.981766,1.000000 139.979492,0.999997 
	C139.986328,42.286518 139.986328,83.573044 139.986328,124.929779 
	C93.755821,124.929779 47.511501,124.929779 1.133592,124.929779 
	C1.133592,83.666924 1.133592,42.333534 1.126439,1.000071 
	C21.767084,1.000000 42.414883,1.000000 63.531342,1.000000 
z"/>
<path fill="#FFFFFF" opacity="1.000000" stroke="none" 
	d="
M46.000000,115.995361 
	C38.011932,115.995262 30.523617,116.033508 23.035870,115.984543 
	C15.158146,115.933037 10.079814,111.160400 10.042768,103.404938 
	C9.942619,82.438835 9.953334,61.471729 10.035563,40.505478 
	C10.065516,32.867985 14.905452,28.100183 22.577478,28.063282 
	C40.215672,27.978445 57.854622,27.970930 75.492950,28.028664 
	C83.101868,28.053566 87.934883,32.856049 87.965141,40.523655 
	C88.047218,61.323517 88.039474,82.124054 87.972366,102.924026 
	C87.945831,111.150177 83.095360,115.941299 74.954437,115.983635 
	C65.469864,116.032959 55.984833,115.995277 46.000000,115.995361 
z"/>
<path fill="#FEFEFE" opacity="1.000000" stroke="none" 
	d="
M96.003906,91.888611 
	C96.003853,74.751419 96.033447,58.104176 95.994400,41.457096 
	C95.963074,28.104784 87.875076,20.040119 74.557739,20.001501 
	C67.570763,19.981241 60.583683,19.997927 53.569706,19.997927 
	C54.642807,13.551240 58.319782,9.961897 64.481567,9.934658 
	C82.792793,9.853709 101.105583,9.891794 119.416290,10.051946 
	C126.253517,10.111746 130.922577,14.892850 130.956116,21.840281 
	C131.058182,42.981678 131.049973,64.124146 130.958069,85.265640 
	C130.929428,91.856018 126.638519,96.662682 120.363457,96.890457 
	C112.416283,97.178940 104.450684,96.960182 96.003906,96.960182 
	C96.003906,95.260262 96.003906,93.819443 96.003906,91.888611 
z"/>
</svg>