<svg version="1.1" id="Layer_1" xmlns="http://www.w3.org/2000/svg" xmlns:xlink="http://www.w3.org/1999/xlink" x="0px" y="0px"
	 width="100%" viewBox="0 0 140 147" enable-background="new 0 0 140 147" xml:space="preserve">
<path fill="#FFFEFE" opacity="1.000000" stroke="none" 
	d="
M96.000000,148.000000 
	C64.000000,148.000000 32.500000,148.000000 1.000000,148.000000 
	C1.000000,99.000000 1.000000,50.000000 1.000000,1.000000 
	C47.666668,1.000000 94.333336,1.000000 141.000000,1.000000 
	C141.000000,50.000000 141.000000,99.000000 141.000000,148.000000 
	C126.166664,148.000000 111.333336,148.000000 96.000000,148.000000 
M50.501175,114.087830 
	C51.415527,110.446053 52.329876,106.804283 53.160255,103.496964 
	C62.177597,103.496964 70.561745,103.496964 79.391502,103.496964 
	C76.997612,113.499199 74.709351,123.060097 72.414169,132.649902 
	C75.912689,132.649902 78.657257,132.649902 81.415512,132.649902 
	C83.307266,124.892723 85.645081,117.546318 86.761269,110.018761 
	C87.649605,104.027931 90.284630,102.393333 95.917336,103.026611 
	C100.434502,103.534462 105.054314,103.129280 109.550056,103.129280 
	C109.550056,99.913864 109.550056,97.640770 109.550056,94.823479 
	C103.254631,94.823479 97.200058,94.823479 90.571114,94.823479 
	C92.895821,85.198265 95.061371,76.232002 97.307037,66.934006 
	C103.652084,66.934006 109.578506,66.934006 115.389801,66.934006 
	C115.389801,64.104042 115.389801,61.740559 115.389801,59.072384 
	C109.962479,59.072384 104.991478,59.072384 99.388458,59.072384 
	C101.725319,49.267204 103.960686,39.887859 106.255157,30.260536 
	C102.862579,30.260536 100.236641,30.260536 97.288795,30.260536 
	C95.181000,38.882015 93.178299,47.431030 90.921135,55.912323 
	C90.590843,57.153435 89.077728,58.965473 88.063004,58.998234 
	C80.132820,59.254257 72.190666,59.139946 63.866676,59.139946 
	C66.283890,49.222599 68.554192,39.908009 70.896622,30.297478 
	C67.717262,30.297478 64.945908,30.297478 61.891403,30.297478 
	C59.483498,39.982632 57.098957,49.573826 54.640926,59.460594 
	C47.516438,59.460594 40.928604,59.460594 34.451172,59.460594 
	C34.451172,62.185921 34.451172,64.443703 34.451172,67.153107 
	C40.527195,67.153107 46.286556,67.153107 52.729008,67.153107 
	C50.443134,76.733398 48.297993,85.723885 46.084373,95.001358 
	C39.929291,95.001358 34.155510,95.001358 28.212948,95.001358 
	C28.212948,97.811768 28.212948,100.227188 28.212948,103.090424 
	C33.488312,103.090424 38.568279,103.090424 44.088989,103.090424 
	C41.629818,113.245926 39.297020,122.879547 36.894867,132.799591 
	C40.090626,132.799591 42.878784,132.799591 45.960262,132.799591 
	C47.392406,126.809288 48.818451,120.844475 50.501175,114.087830 
z"/>
<path fill="#9A3935" opacity="1.000000" stroke="none" 
	d="
M50.372833,114.483749 
	C48.818451,120.844475 47.392406,126.809288 45.960262,132.799591 
	C42.878784,132.799591 40.090626,132.799591 36.894867,132.799591 
	C39.297020,122.879547 41.629818,113.245926 44.088989,103.090424 
	C38.568279,103.090424 33.488312,103.090424 28.212948,103.090424 
	C28.212948,100.227188 28.212948,97.811768 28.212948,95.001358 
	C34.155510,95.001358 39.929291,95.001358 46.084373,95.001358 
	C48.297993,85.723885 50.443134,76.733398 52.729008,67.153107 
	C46.286556,67.153107 40.527195,67.153107 34.451172,67.153107 
	C34.451172,64.443703 34.451172,62.185921 34.451172,59.460594 
	C40.928604,59.460594 47.516438,59.460594 54.640926,59.460594 
	C57.098957,49.573826 59.483498,39.982632 61.891403,30.297478 
	C64.945908,30.297478 67.717262,30.297478 70.896622,30.297478 
	C68.554192,39.908009 66.283890,49.222599 63.866676,59.139946 
	C72.190666,59.139946 80.132820,59.254257 88.063004,58.998234 
	C89.077728,58.965473 90.590843,57.153435 90.921135,55.912323 
	C93.178299,47.431030 95.181000,38.882015 97.288795,30.260536 
	C100.236641,30.260536 102.862579,30.260536 106.255157,30.260536 
	C103.960686,39.887859 101.725319,49.267204 99.388458,59.072384 
	C104.991478,59.072384 109.962479,59.072384 115.389801,59.072384 
	C115.389801,61.740559 115.389801,64.104042 115.389801,66.934006 
	C109.578506,66.934006 103.652084,66.934006 97.307037,66.934006 
	C95.061371,76.232002 92.895821,85.198265 90.571114,94.823479 
	C97.200058,94.823479 103.254631,94.823479 109.550056,94.823479 
	C109.550056,97.640770 109.550056,99.913864 109.550056,103.129280 
	C105.054314,103.129280 100.434502,103.534462 95.917336,103.026611 
	C90.284630,102.393333 87.649605,104.027931 86.761269,110.018761 
	C85.645081,117.546318 83.307266,124.892723 81.415512,132.649902 
	C78.657257,132.649902 75.912689,132.649902 72.414169,132.649902 
	C74.709351,123.060097 76.997612,113.499199 79.391502,103.496964 
	C70.561745,103.496964 62.177597,103.496964 53.160255,103.496964 
	C52.329876,106.804283 51.415527,110.446053 50.372833,114.483749 
M58.096451,94.889267 
	C65.872345,94.889267 73.648239,94.889267 81.574387,94.889267 
	C83.813362,85.489082 85.948219,76.526054 88.188484,67.120438 
	C79.829079,67.120438 72.034447,67.029701 64.247139,67.227318 
	C63.191292,67.254112 61.505692,68.551643 61.242188,69.557068 
	C59.267433,77.091873 57.524044,84.689766 55.882141,92.305412 
	C55.725216,93.033257 56.756477,94.017273 58.096451,94.889267 
z"/>
<path fill="#FDFAFA" opacity="1.000000" stroke="none" 
	d="
M57.666298,94.885818 
	C56.756477,94.017273 55.725216,93.033257 55.882141,92.305412 
	C57.524044,84.689766 59.267433,77.091873 61.242188,69.557068 
	C61.505692,68.551643 63.191292,67.254112 64.247139,67.227318 
	C72.034447,67.029701 79.829079,67.120438 88.188484,67.120438 
	C85.948219,76.526054 83.813362,85.489082 81.574387,94.889267 
	C73.648239,94.889267 65.872345,94.889267 57.666298,94.885818 
z"/>
</svg>