<svg version="1.1" id="Layer_1" xmlns="http://www.w3.org/2000/svg" xmlns:xlink="http://www.w3.org/1999/xlink" x="0px" y="0px"
	 width="100%" viewBox="0 0 140 147" enable-background="new 0 0 140 147" xml:space="preserve">
<path fill="#FFFEFE" opacity="1.000000" stroke="none" 
	d="
M78.000000,148.000000 
	C52.022224,148.000000 26.544451,148.000000 1.033339,148.000000 
	C1.033339,99.064957 1.033339,50.129879 1.033339,1.097401 
	C47.560875,1.097401 94.122017,1.097401 140.841583,1.097401 
	C140.841583,49.999592 140.841583,98.999748 140.841583,148.000000 
	C120.130257,148.000000 99.315132,148.000000 78.000000,148.000000 
M83.500107,62.626518 
	C68.166908,62.626755 52.831852,62.760433 37.501629,62.547043 
	C32.818192,62.481850 31.884924,64.709831 31.918131,68.664871 
	C31.949717,72.426971 32.914036,74.526276 37.295238,74.500740 
	C60.794212,74.363800 84.295059,74.344620 107.793617,74.513275 
	C112.486702,74.546959 113.309845,72.316811 113.362000,68.374077 
	C113.418228,64.124763 111.913193,62.394318 107.497200,62.551502 
	C99.840317,62.824039 92.166718,62.626648 83.500107,62.626518 
z"/>
<path fill="#983430" opacity="1.000000" stroke="none" 
	d="
M84.000114,62.626423 
	C92.166718,62.626648 99.840317,62.824039 107.497200,62.551502 
	C111.913193,62.394318 113.418228,64.124763 113.362000,68.374077 
	C113.309845,72.316811 112.486702,74.546959 107.793617,74.513275 
	C84.295059,74.344620 60.794212,74.363800 37.295238,74.500740 
	C32.914036,74.526276 31.949717,72.426971 31.918131,68.664871 
	C31.884924,64.709831 32.818192,62.481850 37.501629,62.547043 
	C52.831852,62.760433 68.166908,62.626755 84.000114,62.626423 
z"/>
</svg>