<svg version="1.1" id="Layer_1" xmlns="http://www.w3.org/2000/svg" xmlns:xlink="http://www.w3.org/1999/xlink" x="0px" y="0px"
	 width="100%" viewBox="0 0 140 147" enable-background="new 0 0 140 147" xml:space="preserve">
<path fill="antiquewhite" opacity="1.000000" stroke="none" 
	d="
M76.000000,148.000000 
	C50.688313,148.000000 25.876623,148.000000 1.032467,148.000000 
	C1.032467,99.064369 1.032467,50.128716 1.032467,1.096529 
	C47.561462,1.096529 94.123192,1.096529 140.842468,1.096529 
	C140.842468,49.999596 140.842468,98.999748 140.842468,148.000000 
	C119.462433,148.000000 97.981216,148.000000 76.000000,148.000000 
M58.490650,125.011536 
	C59.990524,125.011749 61.490768,125.033951 62.990211,125.008667 
	C74.144730,124.820618 77.114029,121.814278 77.164276,110.617386 
	C77.190216,104.836670 77.168831,99.055733 77.168831,92.994934 
	C91.832664,92.994934 105.921776,92.994934 120.249496,92.994934 
	C120.249496,88.610214 120.249496,84.518982 120.249496,80.493767 
	C106.256065,80.493767 92.537079,80.493767 78.744148,80.493767 
	C87.539787,73.728539 96.271690,67.012329 106.118225,59.438793 
	C102.174873,56.523048 99.257324,52.528793 96.185570,52.406456 
	C81.382431,51.816879 66.537766,52.277313 51.707760,52.350895 
	C46.935101,52.374577 42.162224,52.354607 37.398895,52.354607 
	C37.398895,56.575069 37.398895,60.596661 37.398895,64.332970 
	C52.366013,64.332970 66.922310,64.332970 81.478607,64.332970 
	C81.679977,64.795418 81.881355,65.257858 82.082733,65.720306 
	C76.300095,68.684013 70.517456,71.647728 63.957588,75.009781 
	C63.957588,75.883362 63.957588,78.147934 63.957588,80.498489 
	C49.281441,80.498489 34.877708,80.498489 20.236473,80.498489 
	C20.236473,84.703224 20.236473,88.774033 20.236473,93.196533 
	C35.040321,93.196533 49.590454,93.196533 64.340530,93.196533 
	C64.340530,98.411354 64.154877,103.247696 64.397469,108.062454 
	C64.602921,112.140266 62.733566,113.423805 59.012138,113.134727 
	C54.063862,112.750351 49.107925,112.464653 43.771168,112.111107 
	C45.089592,116.377327 46.300434,120.295418 47.605289,124.517723 
	C50.890064,124.680092 54.204632,124.843925 58.490650,125.011536 
M105.323799,44.997711 
	C105.794266,49.816029 106.264740,54.634342 106.732841,59.428383 
	C110.902382,59.428383 114.817200,59.428383 118.819481,59.428383 
	C118.819481,50.492542 118.819481,41.894932 118.819481,32.775871 
	C104.404724,32.775871 90.208786,32.775871 75.839767,32.775871 
	C75.839767,28.980370 75.839767,25.707552 75.839767,22.355846 
	C71.168457,22.355846 66.778252,22.355846 62.394321,22.355846 
	C62.394321,25.957054 62.394321,29.241335 62.394321,32.952805 
	C48.737003,32.952805 35.148239,32.952805 21.539616,32.952805 
	C21.539616,41.972492 21.539616,50.565544 21.539616,59.461941 
	C25.550035,59.461941 29.610725,59.461941 34.098042,59.461941 
	C34.098042,54.589390 34.098042,49.987911 34.098042,44.883358 
	C57.797478,44.883358 81.074745,44.883358 105.323799,44.997711 
z"/>
<path fill="#9B3935" opacity="1.000000" stroke="none" 
	d="
M58.004921,125.009651 
	C54.204632,124.843925 50.890064,124.680092 47.605289,124.517723 
	C46.300434,120.295418 45.089592,116.377327 43.771168,112.111107 
	C49.107925,112.464653 54.063862,112.750351 59.012138,113.134727 
	C62.733566,113.423805 64.602921,112.140266 64.397469,108.062454 
	C64.154877,103.247696 64.340530,98.411354 64.340530,93.196533 
	C49.590454,93.196533 35.040321,93.196533 20.236473,93.196533 
	C20.236473,88.774033 20.236473,84.703224 20.236473,80.498489 
	C34.877708,80.498489 49.281441,80.498489 63.957588,80.498489 
	C63.957588,78.147934 63.957588,75.883362 63.957588,75.009781 
	C70.517456,71.647728 76.300095,68.684013 82.082733,65.720306 
	C81.881355,65.257858 81.679977,64.795418 81.478607,64.332970 
	C66.922310,64.332970 52.366013,64.332970 37.398895,64.332970 
	C37.398895,60.596661 37.398895,56.575069 37.398895,52.354607 
	C42.162224,52.354607 46.935101,52.374577 51.707760,52.350895 
	C66.537766,52.277313 81.382431,51.816879 96.185570,52.406456 
	C99.257324,52.528793 102.174873,56.523048 106.118225,59.438793 
	C96.271690,67.012329 87.539787,73.728539 78.744148,80.493767 
	C92.537079,80.493767 106.256065,80.493767 120.249496,80.493767 
	C120.249496,84.518982 120.249496,88.610214 120.249496,92.994934 
	C105.921776,92.994934 91.832664,92.994934 77.168831,92.994934 
	C77.168831,99.055733 77.190216,104.836670 77.164276,110.617386 
	C77.114029,121.814278 74.144730,124.820618 62.990211,125.008667 
	C61.490768,125.033951 59.990524,125.011749 58.004921,125.009651 
z"/>
<path fill="#9B3936" opacity="1.000000" stroke="none" 
	d="
M104.837906,44.940536 
	C81.074745,44.883358 57.797478,44.883358 34.098042,44.883358 
	C34.098042,49.987911 34.098042,54.589390 34.098042,59.461941 
	C29.610725,59.461941 25.550035,59.461941 21.539616,59.461941 
	C21.539616,50.565544 21.539616,41.972492 21.539616,32.952805 
	C35.148239,32.952805 48.737003,32.952805 62.394321,32.952805 
	C62.394321,29.241335 62.394321,25.957054 62.394321,22.355846 
	C66.778252,22.355846 71.168457,22.355846 75.839767,22.355846 
	C75.839767,25.707552 75.839767,28.980370 75.839767,32.775871 
	C90.208786,32.775871 104.404724,32.775871 118.819481,32.775871 
	C118.819481,41.894932 118.819481,50.492542 118.819481,59.428383 
	C114.817200,59.428383 110.902382,59.428383 106.732841,59.428383 
	C106.264740,54.634342 105.794266,49.816029 104.837906,44.940536 
z"/>
</svg>