<svg version="1.1" id="Layer_1" xmlns="http://www.w3.org/2000/svg" xmlns:xlink="http://www.w3.org/1999/xlink" x="0px" y="0px"
	 width="100%" viewBox="0 0 190 147" enable-background="new 0 0 190 147" xml:space="preserve">
<path fill="antiquewhite" opacity="1.000000" stroke="none" 
	d="
M134.000000,148.000000 
	C89.366119,148.000000 45.232239,148.000000 1.049178,148.000000 
	C1.049178,99.069199 1.049178,50.138340 1.049178,1.103739 
	C64.217010,1.103739 127.434250,1.103739 190.825745,1.103739 
	C190.825745,49.999485 190.825745,98.999702 190.825745,148.000000 
	C172.138672,148.000000 153.319336,148.000000 134.000000,148.000000 
M11.048833,100.365082 
	C11.106496,103.709396 9.946479,107.353569 15.801824,107.377907 
	C21.538818,107.401764 20.737234,103.964859 20.728069,100.476204 
	C20.687391,84.992943 20.669050,69.509613 20.661963,54.026306 
	C20.661417,52.835823 20.810799,51.645279 20.963146,49.369427 
	C30.382067,66.401413 39.191784,82.358269 48.037849,98.294952 
	C49.164570,100.324806 50.384529,102.318054 51.730110,104.208084 
	C54.434505,108.006721 58.528656,107.532318 62.213356,106.832283 
	C66.070847,106.099411 65.082130,102.492973 65.095123,99.806526 
	C65.157974,86.820755 65.123459,73.834518 65.123474,60.848442 
	C65.123482,52.712532 65.123474,44.576626 65.123474,35.973099 
	C61.854183,35.973099 59.025352,35.973099 55.615288,35.973099 
	C55.615288,54.440308 55.615288,72.367752 55.615288,91.548943 
	C46.367107,74.774879 37.796757,59.215721 29.205568,43.668072 
	C28.242279,41.924789 27.300076,40.141293 26.103189,38.562054 
	C24.089174,35.904655 16.665020,34.010395 13.772030,36.225121 
	C12.036655,37.553635 11.190388,40.966019 11.162521,43.455452 
	C10.953823,62.099789 11.048881,80.747528 11.048833,100.365082 
M170.240128,36.039631 
	C152.594574,31.648846 137.112289,39.394203 132.342911,56.158859 
	C130.297684,63.347942 129.805756,71.314774 130.279327,78.822815 
	C131.818924,103.231636 156.341003,115.908379 177.331238,103.585541 
	C182.135635,100.765007 182.978516,97.809837 180.298080,91.879913 
	C178.151627,93.100037 176.043777,94.299072 173.935135,95.496719 
	C160.625717,103.056114 145.888031,97.987663 142.436356,83.843941 
	C140.824310,77.238434 140.479904,69.823296 141.641586,63.136597 
	C144.898453,44.390076 159.673691,38.373024 175.766510,48.480278 
	C177.088943,49.310844 178.583038,49.868103 180.044098,50.574959 
	C182.620941,43.832523 181.655701,41.009499 176.125076,38.273438 
	C174.491470,37.465282 172.738541,36.898388 170.240128,36.039631 
M93.411606,87.510712 
	C93.411606,83.877060 93.411606,80.243408 93.411606,76.066986 
	C100.829903,76.066986 107.790192,75.962250 114.744835,76.114746 
	C117.845627,76.182739 119.843498,75.670273 119.901215,71.944572 
	C119.959755,68.165199 117.948471,67.650322 114.833954,67.714363 
	C107.881783,67.857330 100.924644,67.759041 93.815781,67.759041 
	C93.815781,59.628223 93.815781,52.095020 93.815781,44.152573 
	C101.348732,44.152573 108.482544,44.119694 115.615814,44.168438 
	C118.548882,44.188477 121.195572,44.554672 121.202461,40.055893 
	C121.208885,35.860111 119.094910,35.570686 115.873901,35.613377 
	C107.213402,35.728146 98.550270,35.625576 89.888405,35.662117 
	C83.972656,35.687073 83.321175,36.333088 83.313469,42.318214 
	C83.287956,62.140881 83.443176,81.965302 83.200615,101.785027 
	C83.143768,106.430298 84.955963,107.716812 89.050453,107.210442 
	C90.333717,107.051743 91.613197,106.862503 93.411209,106.616547 
	C93.411209,100.441620 93.411209,94.473419 93.411606,87.510712 
z"/>
<path fill="#9A3935" opacity="1.000000" stroke="none" 
	d="
M11.048832,99.879639 
	C11.048881,80.747528 10.953823,62.099789 11.162521,43.455452 
	C11.190388,40.966019 12.036655,37.553635 13.772030,36.225121 
	C16.665020,34.010395 24.089174,35.904655 26.103189,38.562054 
	C27.300076,40.141293 28.242279,41.924789 29.205568,43.668072 
	C37.796757,59.215721 46.367107,74.774879 55.615288,91.548943 
	C55.615288,72.367752 55.615288,54.440308 55.615288,35.973099 
	C59.025352,35.973099 61.854183,35.973099 65.123474,35.973099 
	C65.123474,44.576626 65.123482,52.712532 65.123474,60.848442 
	C65.123459,73.834518 65.157974,86.820755 65.095123,99.806526 
	C65.082130,102.492973 66.070847,106.099411 62.213356,106.832283 
	C58.528656,107.532318 54.434505,108.006721 51.730110,104.208084 
	C50.384529,102.318054 49.164570,100.324806 48.037849,98.294952 
	C39.191784,82.358269 30.382067,66.401413 20.963146,49.369427 
	C20.810799,51.645279 20.661417,52.835823 20.661963,54.026306 
	C20.669050,69.509613 20.687391,84.992943 20.728069,100.476204 
	C20.737234,103.964859 21.538818,107.401764 15.801824,107.377907 
	C9.946479,107.353569 11.106496,103.709396 11.048832,99.879639 
z"/>
<path fill="#9B3935" opacity="1.000000" stroke="none" 
	d="
M170.640198,36.130283 
	C172.738541,36.898388 174.491470,37.465282 176.125076,38.273438 
	C181.655701,41.009499 182.620941,43.832523 180.044098,50.574959 
	C178.583038,49.868103 177.088943,49.310844 175.766510,48.480278 
	C159.673691,38.373024 144.898453,44.390076 141.641586,63.136597 
	C140.479904,69.823296 140.824310,77.238434 142.436356,83.843941 
	C145.888031,97.987663 160.625717,103.056114 173.935135,95.496719 
	C176.043777,94.299072 178.151627,93.100037 180.298080,91.879913 
	C182.978516,97.809837 182.135635,100.765007 177.331238,103.585541 
	C156.341003,115.908379 131.818924,103.231636 130.279327,78.822815 
	C129.805756,71.314774 130.297684,63.347942 132.342911,56.158859 
	C137.112289,39.394203 152.594574,31.648846 170.640198,36.130283 
z"/>
<path fill="#9B3935" opacity="1.000000" stroke="none" 
	d="
M93.411407,88.007965 
	C93.411209,94.473419 93.411209,100.441620 93.411209,106.616547 
	C91.613197,106.862503 90.333717,107.051743 89.050453,107.210442 
	C84.955963,107.716812 83.143768,106.430298 83.200615,101.785027 
	C83.443176,81.965302 83.287956,62.140881 83.313469,42.318214 
	C83.321175,36.333088 83.972656,35.687073 89.888405,35.662117 
	C98.550270,35.625576 107.213402,35.728146 115.873901,35.613377 
	C119.094910,35.570686 121.208885,35.860111 121.202461,40.055893 
	C121.195572,44.554672 118.548882,44.188477 115.615814,44.168438 
	C108.482544,44.119694 101.348732,44.152573 93.815781,44.152573 
	C93.815781,52.095020 93.815781,59.628223 93.815781,67.759041 
	C100.924644,67.759041 107.881783,67.857330 114.833954,67.714363 
	C117.948471,67.650322 119.959755,68.165199 119.901215,71.944572 
	C119.843498,75.670273 117.845627,76.182739 114.744835,76.114746 
	C107.790192,75.962250 100.829903,76.066986 93.411606,76.066986 
	C93.411606,80.243408 93.411606,83.877060 93.411407,88.007965 
z"/>
</svg>