<svg version="1.1" id="Layer_1" xmlns="http://www.w3.org/2000/svg" xmlns:xlink="http://www.w3.org/1999/xlink" x="0px" y="0px"
	 width="100%" viewBox="0 0 190 147" enable-background="new 0 0 190 147" xml:space="preserve">
<path fill="antiquewhite" opacity="1.000000" stroke="none" 
	d="
M134.000000,148.000000 
	C89.366119,148.000000 45.232239,148.000000 1.049178,148.000000 
	C1.049178,99.069199 1.049178,50.138340 1.049178,1.103739 
	C64.217010,1.103739 127.434250,1.103739 190.825745,1.103739 
	C190.825745,49.999485 190.825745,98.999702 190.825745,148.000000 
	C172.138672,148.000000 153.319336,148.000000 134.000000,148.000000 
M7.049050,100.365028 
	C7.106750,103.709328 5.946808,107.353500 11.802152,107.377647 
	C17.539612,107.401314 16.736807,103.963463 16.727682,100.475464 
	C16.687176,84.992256 16.668711,69.508980 16.661642,54.025726 
	C16.661098,52.835297 16.810776,51.644802 16.963404,49.369419 
	C26.382141,66.401031 35.191833,82.357803 44.037857,98.294403 
	C45.164577,100.324249 46.384476,102.317528 47.729992,104.207596 
	C50.434254,108.006325 54.528366,107.532120 58.213097,106.832100 
	C62.070606,106.099243 61.081882,102.492867 61.094883,99.806419 
	C61.157726,86.820694 61.123222,73.834496 61.123230,60.848465 
	C61.123238,52.712582 61.123234,44.576698 61.123234,35.973610 
	C57.854023,35.973610 55.025249,35.973610 51.615257,35.973610 
	C51.615257,54.439907 51.615257,72.368744 51.615257,91.549362 
	C42.367054,74.775269 33.796730,59.216167 25.205578,43.668579 
	C24.242292,41.925297 23.300095,40.141815 22.103256,38.562542 
	C20.089273,35.905010 12.665480,34.010616 9.772255,36.225338 
	C8.036880,37.553741 7.190605,40.966187 7.162739,43.455605 
	C6.954039,62.099876 7.049097,80.747551 7.049050,100.365028 
M182.509460,53.153866 
	C178.675507,44.450172 172.010559,38.570190 162.801743,37.212254 
	C153.486374,35.838608 143.917755,36.004364 134.459885,36.000774 
	C133.280060,36.000328 131.091003,39.075562 131.071884,40.745144 
	C130.837326,61.233887 130.944092,81.726326 130.897552,102.217659 
	C130.889908,105.583290 132.329178,107.099525 135.705780,107.022865 
	C142.199539,106.875443 148.718399,107.150185 155.185745,106.682129 
	C164.992233,105.972412 174.070480,102.952362 179.547394,94.156448 
	C187.472519,81.428719 187.558807,67.758049 182.509460,53.153866 
M79.305969,41.034740 
	C79.305313,61.199322 79.467735,81.366173 79.186996,101.526848 
	C79.118561,106.441429 80.979713,107.777275 85.296509,107.197563 
	C86.549522,107.029289 87.789528,106.764244 89.540253,106.454163 
	C89.540253,96.276970 89.540253,86.368759 89.540253,76.066010 
	C97.246864,76.066010 104.386734,75.956413 111.520432,76.118454 
	C114.488632,76.185883 115.799988,75.130516 115.873100,72.164688 
	C115.948814,69.093231 114.937210,67.612671 111.549614,67.701920 
	C104.307526,67.892715 97.056923,67.760338 89.731277,67.760338 
	C89.731277,59.496490 89.731277,52.081955 89.731277,44.151535 
	C97.669113,44.151535 105.299530,44.063278 112.926086,44.196323 
	C115.849899,44.247330 117.185379,43.376904 117.149376,40.239719 
	C117.115501,37.288090 116.597664,35.540989 113.054016,35.601727 
	C103.557770,35.764484 94.056480,35.712543 84.558174,35.631283 
	C81.341965,35.603767 79.454391,36.779541 79.305969,41.034740 
z"/>
<path fill="#9A3935" opacity="1.000000" stroke="none" 
	d="
M7.049048,99.879593 
	C7.049097,80.747551 6.954039,62.099876 7.162739,43.455605 
	C7.190605,40.966187 8.036880,37.553741 9.772255,36.225338 
	C12.665480,34.010616 20.089273,35.905010 22.103256,38.562542 
	C23.300095,40.141815 24.242292,41.925297 25.205578,43.668579 
	C33.796730,59.216167 42.367054,74.775269 51.615257,91.549362 
	C51.615257,72.368744 51.615257,54.439907 51.615257,35.973610 
	C55.025249,35.973610 57.854023,35.973610 61.123234,35.973610 
	C61.123234,44.576698 61.123238,52.712582 61.123230,60.848465 
	C61.123222,73.834496 61.157726,86.820694 61.094883,99.806419 
	C61.081882,102.492867 62.070606,106.099243 58.213097,106.832100 
	C54.528366,107.532120 50.434254,108.006325 47.729992,104.207596 
	C46.384476,102.317528 45.164577,100.324249 44.037857,98.294403 
	C35.191833,82.357803 26.382141,66.401031 16.963404,49.369419 
	C16.810776,51.644802 16.661098,52.835297 16.661642,54.025726 
	C16.668711,69.508980 16.687176,84.992256 16.727682,100.475464 
	C16.736807,103.963463 17.539612,107.401314 11.802152,107.377647 
	C5.946808,107.353500 7.106750,103.709328 7.049048,99.879593 
z"/>
<path fill="#9A3834" opacity="1.000000" stroke="none" 
	d="
M182.687714,53.496452 
	C187.558807,67.758049 187.472519,81.428719 179.547394,94.156448 
	C174.070480,102.952362 164.992233,105.972412 155.185745,106.682129 
	C148.718399,107.150185 142.199539,106.875443 135.705780,107.022865 
	C132.329178,107.099525 130.889908,105.583290 130.897552,102.217659 
	C130.944092,81.726326 130.837326,61.233887 131.071884,40.745144 
	C131.091003,39.075562 133.280060,36.000328 134.459885,36.000774 
	C143.917755,36.004364 153.486374,35.838608 162.801743,37.212254 
	C172.010559,38.570190 178.675507,44.450172 182.687714,53.496452 
M140.934326,93.442223 
	C140.934326,95.041748 140.934326,96.641281 140.934326,98.468201 
	C152.695389,98.265518 164.923370,100.244728 171.284256,88.135857 
	C177.237106,76.803719 177.628922,64.515350 170.458038,53.426495 
	C163.515533,42.690815 152.116302,43.962799 140.934296,44.137264 
	C140.934296,60.548290 140.934296,76.498077 140.934326,93.442223 
z"/>
<path fill="#9B3935" opacity="1.000000" stroke="none" 
	d="
M79.311127,40.594563 
	C79.454391,36.779541 81.341965,35.603767 84.558174,35.631283 
	C94.056480,35.712543 103.557770,35.764484 113.054016,35.601727 
	C116.597664,35.540989 117.115501,37.288090 117.149376,40.239719 
	C117.185379,43.376904 115.849899,44.247330 112.926086,44.196323 
	C105.299530,44.063278 97.669113,44.151535 89.731277,44.151535 
	C89.731277,52.081955 89.731277,59.496490 89.731277,67.760338 
	C97.056923,67.760338 104.307526,67.892715 111.549614,67.701920 
	C114.937210,67.612671 115.948814,69.093231 115.873100,72.164688 
	C115.799988,75.130516 114.488632,76.185883 111.520432,76.118454 
	C104.386734,75.956413 97.246864,76.066010 89.540253,76.066010 
	C89.540253,86.368759 89.540253,96.276970 89.540253,106.454163 
	C87.789528,106.764244 86.549522,107.029289 85.296509,107.197563 
	C80.979713,107.777275 79.118561,106.441429 79.186996,101.526848 
	C79.467735,81.366173 79.305313,61.199322 79.311127,40.594563 
z"/>
<path fill="#FEFDFD" opacity="1.000000" stroke="none" 
	d="
M140.934311,92.945038 
	C140.934296,76.498077 140.934296,60.548290 140.934296,44.137264 
	C152.116302,43.962799 163.515533,42.690815 170.458038,53.426495 
	C177.628922,64.515350 177.237106,76.803719 171.284256,88.135857 
	C164.923370,100.244728 152.695389,98.265518 140.934326,98.468201 
	C140.934326,96.641281 140.934326,95.041748 140.934311,92.945038 
z"/>
</svg>