<svg version="1.1" id="Layer_1" xmlns="http://www.w3.org/2000/svg" xmlns:xlink="http://www.w3.org/1999/xlink" x="0px" y="0px"
	 width="100%" viewBox="0 0 140 147" enable-background="new 0 0 140 147" xml:space="preserve">
<path fill="antiquewhite" opacity="1.000000" stroke="none" 
	d="
M103.000000,148.000000 
	C68.666664,148.000000 34.833332,148.000000 1.000000,148.000000 
	C1.000000,99.000000 1.000000,50.000000 1.000000,1.000000 
	C47.666668,1.000000 94.333336,1.000000 141.000000,1.000000 
	C141.000000,50.000000 141.000000,99.000000 141.000000,148.000000 
	C128.500000,148.000000 116.000000,148.000000 103.000000,148.000000 
M72.500000,135.073532 
	C93.759529,135.073532 115.019051,135.073532 136.495972,135.073532 
	C136.495972,127.013496 136.495972,119.461563 136.495972,111.678482 
	C132.168777,111.678482 128.137268,111.678482 123.585938,111.678482 
	C123.585938,115.792000 123.585938,119.543579 123.585938,123.335091 
	C88.232971,123.335091 53.405361,123.335091 18.055809,123.335091 
	C18.055809,119.182648 18.055809,115.439461 18.055809,111.788742 
	C13.491400,111.788742 9.464815,111.788742 5.469317,111.788742 
	C5.469317,119.705048 5.469317,127.139618 5.469317,135.073547 
	C27.648745,135.073547 49.574371,135.073547 72.500000,135.073532 
M92.480766,59.894672 
	C95.201607,57.299759 93.258781,55.427612 91.424606,53.656746 
	C89.412186,51.713799 87.670395,52.403919 85.889580,54.257710 
	C81.071640,59.273090 76.141068,64.180275 71.008591,69.380180 
	C65.832718,64.164322 60.955757,59.424313 56.295582,54.479977 
	C53.958424,52.000301 51.908836,51.855263 49.560093,54.226265 
	C47.267262,56.540817 47.795692,58.456036 50.071896,60.532227 
	C55.093472,65.112541 59.964806,69.857574 65.566666,75.170059 
	C59.945656,80.525589 55.096935,85.274033 50.095760,89.856079 
	C47.587807,92.153870 47.430374,94.215172 49.863155,96.578865 
	C52.205624,98.854797 54.142754,98.327835 56.208042,96.087173 
	C60.804665,91.100212 65.526245,86.228424 70.672195,80.809135 
	C76.092812,86.384727 80.924927,91.166153 85.523613,96.162422 
	C87.931366,98.778351 89.939529,98.543716 92.232338,96.222977 
	C94.590576,93.835991 93.780045,91.963081 91.623787,89.926102 
	C86.688103,85.263489 81.887123,80.458282 76.526787,75.217575 
	C81.889954,70.066551 86.925812,65.229874 92.480766,59.894672 
z"/>
<path fill="#993733" opacity="1.000000" stroke="none" 
	d="
M72.000000,135.073547 
	C49.574371,135.073547 27.648745,135.073547 5.469317,135.073547 
	C5.469317,127.139618 5.469317,119.705048 5.469317,111.788742 
	C9.464815,111.788742 13.491400,111.788742 18.055809,111.788742 
	C18.055809,115.439461 18.055809,119.182648 18.055809,123.335091 
	C53.405361,123.335091 88.232971,123.335091 123.585938,123.335091 
	C123.585938,119.543579 123.585938,115.792000 123.585938,111.678482 
	C128.137268,111.678482 132.168777,111.678482 136.495972,111.678482 
	C136.495972,119.461563 136.495972,127.013496 136.495972,135.073532 
	C115.019051,135.073532 93.759529,135.073532 72.000000,135.073547 
z"/>
<path fill="#060606" opacity="1.000000" stroke="none" 
	d="
M92.221222,60.143936 
	C86.925812,65.229874 81.889954,70.066551 76.526787,75.217575 
	C81.887123,80.458282 86.688103,85.263489 91.623787,89.926102 
	C93.780045,91.963081 94.590576,93.835991 92.232338,96.222977 
	C89.939529,98.543716 87.931366,98.778351 85.523613,96.162422 
	C80.924927,91.166153 76.092812,86.384727 70.672195,80.809135 
	C65.526245,86.228424 60.804665,91.100212 56.208042,96.087173 
	C54.142754,98.327835 52.205624,98.854797 49.863155,96.578865 
	C47.430374,94.215172 47.587807,92.153870 50.095760,89.856079 
	C55.096935,85.274033 59.945656,80.525589 65.566666,75.170059 
	C59.964806,69.857574 55.093472,65.112541 50.071896,60.532227 
	C47.795692,58.456036 47.267262,56.540817 49.560093,54.226265 
	C51.908836,51.855263 53.958424,52.000301 56.295582,54.479977 
	C60.955757,59.424313 65.832718,64.164322 71.008591,69.380180 
	C76.141068,64.180275 81.071640,59.273090 85.889580,54.257710 
	C87.670395,52.403919 89.412186,51.713799 91.424606,53.656746 
	C93.258781,55.427612 95.201607,57.299759 92.221222,60.143936 
z"/>
</svg>