<svg version="1.1" id="Layer_1" xmlns="http://www.w3.org/2000/svg" xmlns:xlink="http://www.w3.org/1999/xlink" x="0px" y="0px"
	 width="100%" viewBox="0 0 140 147" enable-background="new 0 0 140 147" xml:space="preserve">
<path fill="#FEFEFE" opacity="1.000000" stroke="none" 
	d="
M95.000000,148.000000 
	C63.333332,148.000000 32.166668,148.000000 1.000000,148.000000 
	C1.000000,99.000000 1.000000,50.000000 1.000000,1.000000 
	C47.666668,1.000000 94.333336,1.000000 141.000000,1.000000 
	C141.000000,50.000000 141.000000,99.000000 141.000000,148.000000 
	C125.833336,148.000000 110.666664,148.000000 95.000000,148.000000 
M59.826897,43.837173 
	C48.812866,37.497440 36.976360,34.140179 24.246265,34.446712 
	C22.788553,34.481812 21.370390,36.159264 19.933891,37.075214 
	C21.276300,38.150936 22.490179,39.894691 23.984253,40.182156 
	C29.324711,41.209682 34.852943,41.334225 40.143856,42.533798 
	C64.141296,47.974579 82.991966,68.526093 86.427238,92.876083 
	C87.048576,97.280281 86.958221,101.784889 87.196426,106.243141 
	C86.744606,106.338783 86.292778,106.434418 85.840958,106.530060 
	C81.686691,102.831039 77.532425,99.132019 73.481422,95.524956 
	C69.714897,97.450813 70.076851,99.477028 72.228577,102.053375 
	C76.806709,107.534943 81.211678,113.160988 85.698891,118.718727 
	C87.206688,120.586235 88.748650,122.426163 90.439270,124.478081 
	C96.892792,116.515152 103.034950,109.124306 108.883812,101.508232 
	C109.719490,100.420059 109.135857,98.241905 109.209091,96.568214 
	C107.696671,96.954147 105.827377,96.907303 104.737671,97.805870 
	C101.248024,100.683456 98.047089,103.911179 93.566795,108.094185 
	C93.164276,80.040672 83.814842,58.309410 59.826897,43.837173 
z"/>
<path fill="#A34A44" opacity="1.000000" stroke="none" 
	d="
M60.160450,43.987762 
	C83.814842,58.309410 93.164276,80.040672 93.566795,108.094185 
	C98.047089,103.911179 101.248024,100.683456 104.737671,97.805870 
	C105.827377,96.907303 107.696671,96.954147 109.209091,96.568214 
	C109.135857,98.241905 109.719490,100.420059 108.883812,101.508232 
	C103.034950,109.124306 96.892792,116.515152 90.439270,124.478081 
	C88.748650,122.426163 87.206688,120.586235 85.698891,118.718727 
	C81.211678,113.160988 76.806709,107.534943 72.228577,102.053375 
	C70.076851,99.477028 69.714897,97.450813 73.481422,95.524956 
	C77.532425,99.132019 81.686691,102.831039 85.840958,106.530060 
	C86.292778,106.434418 86.744606,106.338783 87.196426,106.243141 
	C86.958221,101.784889 87.048576,97.280281 86.427238,92.876083 
	C82.991966,68.526093 64.141296,47.974579 40.143856,42.533798 
	C34.852943,41.334225 29.324711,41.209682 23.984253,40.182156 
	C22.490179,39.894691 21.276300,38.150936 19.933891,37.075214 
	C21.370390,36.159264 22.788553,34.481812 24.246265,34.446712 
	C36.976360,34.140179 48.812866,37.497440 60.160450,43.987762 
z"/>
</svg>