<svg version="1.1" id="Layer_1" xmlns="http://www.w3.org/2000/svg" xmlns:xlink="http://www.w3.org/1999/xlink" x="0px" y="0px"
	 width="100%" viewBox="0 0 268 147" enable-background="new 0 0 268 147" xml:space="preserve">
<path fill="#B99332" opacity="1.000000" stroke="none" 
	d="
M1.000000,129.000000 
	C1.000000,93.312439 1.000000,57.624878 1.305503,21.286400 
	C4.093699,11.602777 9.855517,5.307028 18.000000,1.000000 
	C95.687561,1.000000 173.375122,1.000000 251.739960,1.265720 
	C261.377136,5.573596 266.165070,12.995678 269.000000,22.000000 
	C269.000000,57.354229 269.000000,92.708458 268.683899,128.697617 
	C266.093658,137.490860 260.945129,143.436829 254.000000,148.000000 
	C174.979111,148.000000 95.958206,148.000000 16.295692,147.713043 
	C8.037103,143.457001 4.335402,136.374161 1.000000,129.000000 
M106.500000,142.997665 
	C150.647003,142.997589 194.794037,143.013229 238.941025,142.988052 
	C252.604279,142.980255 260.983154,134.529037 260.991669,120.808044 
	C261.010529,90.321609 261.006226,59.835152 260.993683,29.348711 
	C260.987854,15.180275 252.859207,7.015594 238.695877,7.009026 
	C169.559952,6.976959 100.424034,6.961473 31.288107,6.954328 
	C17.173275,6.952869 9.012892,15.144975 9.006623,29.299547 
	C8.993197,59.619392 8.995851,89.939247 9.005297,120.259102 
	C9.009788,134.673294 17.229170,142.979904 31.532890,142.991776 
	C56.188580,143.012238 80.844299,142.997574 106.500000,142.997665 
z"/>
<path fill="#FDFCF9" opacity="1.000000" stroke="none" 
	d="
M269.000000,21.531088 
	C266.165070,12.995678 261.377136,5.573596 252.208618,1.265720 
	C257.600494,1.000000 263.201019,1.000000 269.000000,1.000000 
	C269.000000,7.686447 269.000000,14.374311 269.000000,21.531088 
z"/>
<path fill="#FDFCF9" opacity="1.000000" stroke="none" 
	d="
M17.529547,1.000000 
	C9.855517,5.307028 4.093699,11.602777 1.305503,20.817741 
	C1.000000,14.413864 1.000000,7.827729 1.000000,1.000000 
	C6.350632,1.000000 11.704863,1.000000 17.529547,1.000000 
z"/>
<path fill="#FDFDFA" opacity="1.000000" stroke="none" 
	d="
M1.000000,129.469376 
	C4.335402,136.374161 8.037103,143.457001 15.827036,147.713043 
	C11.065485,148.000000 6.130970,148.000000 1.000000,148.000000 
	C1.000000,141.980576 1.000000,135.959671 1.000000,129.469376 
z"/>
<path fill="#FDFCFA" opacity="1.000000" stroke="none" 
	d="
M254.472656,148.000000 
	C260.945129,143.436829 266.093658,137.490860 268.683899,129.166275 
	C269.000000,135.249146 269.000000,141.498291 269.000000,148.000000 
	C264.318085,148.000000 259.631714,148.000000 254.472656,148.000000 
z"/>
<path fill="#FFFFFF" opacity="1.000000" stroke="none" 
	d="
M106.000000,142.997665 
	C80.844299,142.997574 56.188580,143.012238 31.532890,142.991776 
	C17.229170,142.979904 9.009788,134.673294 9.005297,120.259102 
	C8.995851,89.939247 8.993197,59.619392 9.006623,29.299547 
	C9.012892,15.144975 17.173275,6.952869 31.288107,6.954328 
	C100.424034,6.961473 169.559952,6.976959 238.695877,7.009026 
	C252.859207,7.015594 260.987854,15.180275 260.993683,29.348711 
	C261.006226,59.835152 261.010529,90.321609 260.991669,120.808044 
	C260.983154,134.529037 252.604279,142.980255 238.941025,142.988052 
	C194.794037,143.013229 150.647003,142.997589 106.000000,142.997665 
M77.123123,38.714397 
	C75.753204,42.569077 73.266075,46.404255 73.198418,50.281658 
	C72.817833,72.091675 72.847282,93.913811 73.096489,115.727699 
	C73.217995,126.363548 81.782417,134.832550 92.238365,134.939072 
	C110.722412,135.127365 129.210388,135.084213 147.695404,134.952164 
	C156.168594,134.891632 163.386032,129.251541 165.960739,121.174873 
	C166.496933,119.492912 166.879044,117.761856 167.347183,115.996803 
	C175.278015,115.996803 182.933319,116.108849 190.584076,115.970169 
	C201.652008,115.769539 209.876053,107.711105 209.951630,96.679749 
	C210.098831,75.197060 210.115509,53.711639 209.939789,32.229366 
	C209.851669,21.458315 201.626007,13.183428 190.939529,13.058971 
	C172.289230,12.841769 153.634766,12.828913 134.983231,12.935691 
	C126.662598,12.983325 119.615791,18.485233 117.040596,26.365292 
	C116.544716,27.882713 116.184738,29.444550 115.750198,31.029142 
	C108.224434,31.029142 101.068764,31.085838 93.914421,31.012449 
	C87.371422,30.945333 81.886009,33.159145 77.123123,38.714397 
z"/>
<path fill="#030303" opacity="1.000000" stroke="none" 
	d="
M77.353867,38.432770 
	C81.886009,33.159145 87.371422,30.945333 93.914421,31.012449 
	C101.068764,31.085838 108.224434,31.029142 115.750198,31.029142 
	C116.184738,29.444550 116.544716,27.882713 117.040596,26.365292 
	C119.615791,18.485233 126.662598,12.983325 134.983231,12.935691 
	C153.634766,12.828913 172.289230,12.841769 190.939529,13.058971 
	C201.626007,13.183428 209.851669,21.458315 209.939789,32.229366 
	C210.115509,53.711639 210.098831,75.197060 209.951630,96.679749 
	C209.876053,107.711105 201.652008,115.769539 190.584076,115.970169 
	C182.933319,116.108849 175.278015,115.996803 167.347183,115.996803 
	C166.879044,117.761856 166.496933,119.492912 165.960739,121.174873 
	C163.386032,129.251541 156.168594,134.891632 147.695404,134.952164 
	C129.210388,135.084213 110.722412,135.127365 92.238365,134.939072 
	C81.782417,134.832550 73.217995,126.363548 73.096489,115.727699 
	C72.847282,93.913811 72.817833,72.091675 73.198418,50.281658 
	C73.266075,46.404255 75.753204,42.569077 77.353867,38.432770 
M81.004700,108.431747 
	C81.004700,109.430191 81.004028,110.428635 81.004807,111.427078 
	C81.013809,122.982002 85.018860,126.994064 96.550705,126.994942 
	C112.859039,126.996185 129.167404,127.014244 145.475693,126.987503 
	C154.258713,126.973091 158.962891,122.275612 158.981583,113.403000 
	C159.024368,93.100883 159.019089,72.798569 158.984131,52.496414 
	C158.968735,43.556770 154.402481,39.022514 145.467606,39.014141 
	C128.660065,38.998390 111.852455,39.015503 95.044922,39.042446 
	C85.413101,39.057888 81.021202,43.430141 81.010567,53.034557 
	C80.990479,71.173393 81.004723,89.312271 81.004700,108.431747 
M201.258682,28.754562 
	C199.245163,23.435354 195.294220,21.013935 189.710144,21.002501 
	C171.889389,20.966009 154.068558,20.873001 136.247925,20.903646 
	C129.619675,20.915043 126.140900,23.923273 124.398598,30.997900 
	C131.429642,30.997900 138.369659,30.985773 145.309616,31.000475 
	C158.971024,31.029415 166.972900,39.021461 166.996796,52.724606 
	C167.026413,69.712616 166.998398,86.700722 167.014114,103.688766 
	C167.015427,105.107536 167.159836,106.526176 167.240555,107.995857 
	C174.875137,107.995857 182.033875,108.036018 189.191956,107.985390 
	C197.583252,107.926048 201.960007,103.469238 201.986099,94.934532 
	C202.024292,82.443428 202.045273,69.951859 201.979828,57.460983 
	C201.931046,48.146156 201.733871,38.832104 201.258682,28.754562 
z"/>
<path fill="#FFFFFF" opacity="1.000000" stroke="none" 
	d="
M81.004700,107.941437 
	C81.004723,89.312271 80.990479,71.173393 81.010567,53.034557 
	C81.021202,43.430141 85.413101,39.057888 95.044922,39.042446 
	C111.852455,39.015503 128.660065,38.998390 145.467606,39.014141 
	C154.402481,39.022514 158.968735,43.556770 158.984131,52.496414 
	C159.019089,72.798569 159.024368,93.100883 158.981583,113.403000 
	C158.962891,122.275612 154.258713,126.973091 145.475693,126.987503 
	C129.167404,127.014244 112.859039,126.996185 96.550705,126.994942 
	C85.018860,126.994064 81.013809,122.982002 81.004807,111.427078 
	C81.004028,110.428635 81.004700,109.430191 81.004700,107.941437 
z"/>
<path fill="#FEFEFE" opacity="1.000000" stroke="none" 
	d="
M201.430725,29.136135 
	C201.733871,38.832104 201.931046,48.146156 201.979828,57.460983 
	C202.045273,69.951859 202.024292,82.443428 201.986099,94.934532 
	C201.960007,103.469238 197.583252,107.926048 189.191956,107.985390 
	C182.033875,108.036018 174.875137,107.995857 167.240555,107.995857 
	C167.159836,106.526176 167.015427,105.107536 167.014114,103.688766 
	C166.998398,86.700722 167.026413,69.712616 166.996796,52.724606 
	C166.972900,39.021461 158.971024,31.029415 145.309616,31.000475 
	C138.369659,30.985773 131.429642,30.997900 124.398598,30.997900 
	C126.140900,23.923273 129.619675,20.915043 136.247925,20.903646 
	C154.068558,20.873001 171.889389,20.966009 189.710144,21.002501 
	C195.294220,21.013935 199.245163,23.435354 201.430725,29.136135 
z"/>
</svg>